<svg width="92" height="74" viewBox="0 0 92 74" fill="none" xmlns="http://www.w3.org/2000/svg">
<g id="Group 7352">
<g id="Group 7349">
<path id="Vector" d="M92.0001 36.8008C92.0001 27.0407 88.1228 17.6802 81.2213 10.7787C74.3198 3.87722 64.9594 1.27989e-06 55.1992 0C45.4391 -1.27989e-06 36.0787 3.87722 29.1772 10.7787C22.2757 17.6802 18.3984 27.0407 18.3984 36.8008H29.8988C33.7097 36.8008 36.6817 33.6073 38.0776 30.0611C38.994 27.733 40.3847 25.5934 42.1881 23.7897C45.6388 20.339 50.3192 18.4004 55.1992 18.4004C60.0793 18.4004 64.7596 20.339 68.2104 23.7897C71.6611 27.2405 73.5995 31.9208 73.5995 36.8008H92.0001Z" fill="url(#paint0_linear_1654_5091)"/>
<path id="Vector_2" d="M70.7986 50.8837C72.648 46.4188 73.6 41.6334 73.6 36.8008H91.9984C91.9984 57.1253 75.5221 73.6014 55.1976 73.6014C52.0147 73.6014 48.9259 73.1974 45.9805 72.4378C47.647 72.0084 49.2851 71.4616 50.8821 70.8002C55.347 68.9507 59.4039 66.2401 62.8212 62.8228C66.2385 59.4055 68.9494 55.3486 70.7986 50.8837Z" fill="#FBCF8E"/>
<path id="Vector_3" d="M0 36.8005C-6.91367e-07 41.6334 0.95188 46.4188 2.80129 50.8837C4.65071 55.3486 7.36143 59.4055 10.7787 62.8228C14.196 66.2399 18.2529 68.9507 22.7177 70.8002C27.1826 72.6496 31.968 73.6014 36.8008 73.6014C41.6335 73.6014 46.4189 72.6496 50.8838 70.8002C55.3487 68.9507 59.4056 66.2399 62.8229 62.8228C66.2402 59.4055 68.9508 55.3486 70.8002 50.8837C72.6497 46.4188 73.6017 41.6334 73.6017 36.8005H62.1012C58.2904 36.8005 55.3183 39.9941 53.9225 43.54C53.8829 43.6411 53.8421 43.7417 53.8005 43.8422C52.8758 46.0746 51.5205 48.1031 49.8118 49.8117C48.1032 51.5202 46.0747 52.8757 43.8423 53.8005C41.61 54.7252 39.2173 55.2011 36.8008 55.2011C34.3844 55.2011 31.9917 54.7252 29.7594 53.8005C27.5268 52.8757 25.4985 51.5202 23.7897 49.8117C22.0811 48.1031 20.7258 46.0746 19.8011 43.8422C18.8763 41.6097 18.4004 39.217 18.4004 36.8005H0Z" fill="url(#paint1_linear_1654_5091)"/>
<path id="Vector_4" d="M0.00390625 36.8008C0.00390625 16.4762 16.4801 0 36.8045 0C39.9868 0 43.0746 0.403875 46.0198 1.1632C39.7002 2.79118 33.8705 6.08579 29.1774 10.7787C22.2759 17.6801 18.3987 27.0407 18.3987 36.8008H0.00390625Z" fill="#73E5E2"/>
</g>
</g>
<defs>
<linearGradient id="paint0_linear_1654_5091" x1="92.0001" y1="18.4004" x2="18.3984" y2="18.4004" gradientUnits="userSpaceOnUse">
<stop stop-color="#73E5E2"/>
<stop offset="1" stop-color="#394F87"/>
</linearGradient>
<linearGradient id="paint1_linear_1654_5091" x1="2.41292e-06" y1="55.2011" x2="73.6017" y2="55.2011" gradientUnits="userSpaceOnUse">
<stop stop-color="#FBDC8E"/>
<stop offset="1" stop-color="#FB958E"/>
</linearGradient>
</defs>
</svg>
