<svg width="211" height="66" viewBox="0 0 211 66" fill="none" xmlns="http://www.w3.org/2000/svg">
<path d="M101.793 30V11.8182H105.087V19.5153H113.512V11.8182H116.815V30H113.512V22.2763H105.087V30H101.793ZM125.792 30.2663C124.425 30.2663 123.244 29.9822 122.249 29.4141C121.261 28.84 120.501 28.0291 119.968 26.9815C119.435 25.928 119.169 24.6881 119.169 23.2617C119.169 21.859 119.435 20.628 119.968 19.5685C120.506 18.5032 121.258 17.6746 122.223 17.0827C123.188 16.485 124.321 16.1861 125.623 16.1861C126.463 16.1861 127.257 16.3222 128.002 16.5945C128.754 16.8608 129.417 17.2751 129.991 17.8374C130.571 18.3996 131.027 19.1158 131.358 19.9858C131.69 20.8499 131.855 21.8797 131.855 23.0753V24.0607H120.678V21.8945H128.775C128.769 21.279 128.636 20.7315 128.375 20.2521C128.115 19.7668 127.751 19.3851 127.283 19.1069C126.822 18.8287 126.283 18.6896 125.667 18.6896C125.01 18.6896 124.433 18.8494 123.936 19.169C123.439 19.4827 123.051 19.897 122.773 20.4119C122.501 20.9209 122.362 21.4802 122.356 22.0898V23.9808C122.356 24.7739 122.501 25.4545 122.791 26.0227C123.081 26.585 123.486 27.017 124.007 27.3189C124.528 27.6148 125.138 27.7628 125.836 27.7628C126.304 27.7628 126.727 27.6977 127.106 27.5675C127.484 27.4313 127.813 27.2331 128.091 26.9727C128.369 26.7122 128.579 26.3897 128.721 26.005L131.722 26.3423C131.533 27.1354 131.172 27.8279 130.639 28.4197C130.112 29.0057 129.438 29.4614 128.615 29.7869C127.792 30.1065 126.851 30.2663 125.792 30.2663ZM137.998 30.2752C137.134 30.2752 136.356 30.1213 135.663 29.8136C134.977 29.4999 134.432 29.0382 134.03 28.4286C133.633 27.819 133.435 27.0674 133.435 26.1737C133.435 25.4042 133.577 24.768 133.861 24.2649C134.145 23.7618 134.533 23.3594 135.024 23.0575C135.515 22.7557 136.069 22.5278 136.684 22.3739C137.306 22.2141 137.948 22.0987 138.611 22.0277C139.41 21.9448 140.058 21.8709 140.555 21.8058C141.052 21.7347 141.413 21.6282 141.638 21.4862C141.869 21.3382 141.984 21.1103 141.984 20.8026V20.7493C141.984 20.0805 141.786 19.5626 141.389 19.1957C140.993 18.8287 140.422 18.6452 139.676 18.6452C138.889 18.6452 138.264 18.8169 137.803 19.1602C137.347 19.5034 137.039 19.9089 136.88 20.3764L133.879 19.9503C134.116 19.1217 134.506 18.4292 135.051 17.8729C135.595 17.3106 136.261 16.8904 137.048 16.6122C137.835 16.3281 138.705 16.1861 139.658 16.1861C140.315 16.1861 140.969 16.263 141.62 16.4169C142.271 16.5708 142.866 16.8253 143.405 17.1804C143.943 17.5296 144.375 18.006 144.701 18.6097C145.032 19.2134 145.198 19.968 145.198 20.8736V30H142.109V28.1268H142.002C141.807 28.5056 141.532 28.8607 141.176 29.1921C140.827 29.5176 140.386 29.781 139.854 29.9822C139.327 30.1776 138.708 30.2752 137.998 30.2752ZM138.833 27.9137C139.478 27.9137 140.037 27.7865 140.511 27.532C140.984 27.2715 141.348 26.9283 141.603 26.5021C141.863 26.076 141.993 25.6114 141.993 25.1083V23.5014C141.893 23.5843 141.721 23.6612 141.478 23.7322C141.242 23.8033 140.975 23.8654 140.679 23.9187C140.383 23.9719 140.09 24.0193 139.8 24.0607C139.51 24.1022 139.259 24.1377 139.046 24.1673C138.566 24.2324 138.137 24.3389 137.758 24.4869C137.38 24.6348 137.081 24.842 136.862 25.1083C136.643 25.3687 136.533 25.7061 136.533 26.1204C136.533 26.7122 136.749 27.1591 137.181 27.4609C137.613 27.7628 138.164 27.9137 138.833 27.9137ZM158.707 19.968L155.778 20.2876C155.695 19.9917 155.55 19.7135 155.343 19.4531C155.141 19.1927 154.869 18.9826 154.526 18.8228C154.183 18.663 153.762 18.5831 153.265 18.5831C152.596 18.5831 152.034 18.7281 151.578 19.0181C151.129 19.3081 150.907 19.6839 150.913 20.1456C150.907 20.5421 151.052 20.8647 151.348 21.1133C151.649 21.3619 152.147 21.5661 152.839 21.7259L155.165 22.223C156.455 22.5012 157.414 22.9421 158.041 23.5458C158.675 24.1495 158.994 24.9396 159 25.9162C158.994 26.7744 158.743 27.532 158.246 28.1889C157.754 28.84 157.071 29.349 156.195 29.7159C155.319 30.0829 154.313 30.2663 153.176 30.2663C151.507 30.2663 150.164 29.9171 149.146 29.2188C148.128 28.5144 147.521 27.5349 147.326 26.2802L150.46 25.9783C150.602 26.5939 150.904 27.0585 151.365 27.3722C151.827 27.6858 152.428 27.8427 153.168 27.8427C153.931 27.8427 154.544 27.6858 155.005 27.3722C155.473 27.0585 155.707 26.6708 155.707 26.2092C155.707 25.8185 155.556 25.496 155.254 25.2415C154.958 24.987 154.496 24.7917 153.869 24.6555L151.543 24.1673C150.235 23.895 149.267 23.4363 148.64 22.7912C148.012 22.1402 147.702 21.3175 147.708 20.3232C147.702 19.4827 147.93 18.7547 148.391 18.1392C148.859 17.5178 149.507 17.0384 150.335 16.701C151.17 16.3577 152.132 16.1861 153.221 16.1861C154.819 16.1861 156.076 16.5264 156.994 17.207C157.917 17.8877 158.488 18.808 158.707 19.968ZM163.148 35.1136C162.71 35.1136 162.304 35.0781 161.932 35.0071C161.565 34.942 161.272 34.8651 161.053 34.7763L161.798 32.2727C162.266 32.4089 162.683 32.474 163.05 32.468C163.417 32.4621 163.74 32.3467 164.018 32.1218C164.302 31.9028 164.542 31.5359 164.737 31.021L165.012 30.2841L160.067 16.3636H163.476L166.619 26.6619H166.761L169.913 16.3636H173.331L167.871 31.6513C167.616 32.3733 167.279 32.9918 166.859 33.5067C166.439 34.0276 165.924 34.4241 165.314 34.6964C164.71 34.9746 163.988 35.1136 163.148 35.1136Z" fill="#3568D4"/>
<path d="M101.793 53V34.8182H108.612C110.008 34.8182 111.18 35.0608 112.127 35.5462C113.08 36.0315 113.799 36.7121 114.284 37.5881C114.776 38.4581 115.021 39.4731 115.021 40.6332C115.021 41.7991 114.773 42.8112 114.276 43.6694C113.784 44.5217 113.059 45.1816 112.1 45.6491C111.142 46.1108 109.964 46.3416 108.567 46.3416H103.711V43.6072H108.123C108.94 43.6072 109.609 43.4948 110.13 43.2699C110.65 43.0391 111.035 42.7047 111.284 42.2667C111.538 41.8228 111.665 41.2783 111.665 40.6332C111.665 39.988 111.538 39.4376 111.284 38.9819C111.029 38.5202 110.642 38.171 110.121 37.9343C109.6 37.6916 108.928 37.5703 108.105 37.5703H105.087V53H101.793ZM111.186 44.7614L115.687 53H112.012L107.591 44.7614H111.186ZM123.253 53.2663C121.885 53.2663 120.705 52.9822 119.71 52.4141C118.722 51.84 117.961 51.0291 117.429 49.9815C116.896 48.928 116.63 47.6881 116.63 46.2617C116.63 44.859 116.896 43.628 117.429 42.5685C117.967 41.5032 118.719 40.6746 119.684 40.0827C120.648 39.485 121.782 39.1861 123.084 39.1861C123.924 39.1861 124.718 39.3222 125.463 39.5945C126.215 39.8608 126.878 40.2751 127.452 40.8374C128.032 41.3996 128.488 42.1158 128.819 42.9858C129.151 43.8499 129.316 44.8797 129.316 46.0753V47.0607H118.139V44.8945H126.236C126.23 44.279 126.097 43.7315 125.836 43.2521C125.576 42.7668 125.212 42.3851 124.744 42.1069C124.282 41.8287 123.744 41.6896 123.128 41.6896C122.471 41.6896 121.894 41.8494 121.397 42.169C120.9 42.4827 120.512 42.897 120.234 43.4119C119.962 43.9209 119.823 44.4802 119.817 45.0898V46.9808C119.817 47.7739 119.962 48.4545 120.252 49.0227C120.542 49.585 120.947 50.017 121.468 50.3189C121.989 50.6148 122.599 50.7628 123.297 50.7628C123.765 50.7628 124.188 50.6977 124.567 50.5675C124.945 50.4313 125.274 50.2331 125.552 49.9727C125.83 49.7122 126.04 49.3897 126.182 49.005L129.183 49.3423C128.994 50.1354 128.633 50.8279 128.1 51.4197C127.573 52.0057 126.898 52.4614 126.076 52.7869C125.253 53.1065 124.312 53.2663 123.253 53.2663ZM142.313 42.968L139.383 43.2876C139.3 42.9917 139.155 42.7135 138.948 42.4531C138.747 42.1927 138.475 41.9826 138.131 41.8228C137.788 41.663 137.368 41.5831 136.871 41.5831C136.202 41.5831 135.64 41.7281 135.184 42.0181C134.734 42.3081 134.512 42.6839 134.518 43.1456C134.512 43.5421 134.657 43.8647 134.953 44.1133C135.255 44.3619 135.752 44.5661 136.445 44.7259L138.771 45.223C140.061 45.5012 141.02 45.9421 141.647 46.5458C142.28 47.1495 142.6 47.9396 142.606 48.9162C142.6 49.7744 142.348 50.532 141.851 51.1889C141.36 51.84 140.676 52.349 139.8 52.7159C138.924 53.0829 137.918 53.2663 136.782 53.2663C135.113 53.2663 133.769 52.9171 132.751 52.2188C131.733 51.5144 131.127 50.5349 130.931 49.2802L134.065 48.9783C134.207 49.5939 134.509 50.0585 134.971 50.3722C135.432 50.6858 136.033 50.8427 136.773 50.8427C137.536 50.8427 138.149 50.6858 138.611 50.3722C139.078 50.0585 139.312 49.6708 139.312 49.2092C139.312 48.8185 139.161 48.496 138.859 48.2415C138.563 47.987 138.102 47.7917 137.474 47.6555L135.148 47.1673C133.84 46.895 132.873 46.4363 132.245 45.7912C131.618 45.1402 131.307 44.3175 131.313 43.3232C131.307 42.4827 131.535 41.7547 131.997 41.1392C132.464 40.5178 133.112 40.0384 133.941 39.701C134.775 39.3577 135.737 39.1861 136.826 39.1861C138.424 39.1861 139.682 39.5264 140.599 40.207C141.523 40.8877 142.094 41.808 142.313 42.968ZM150.704 53.2663C149.372 53.2663 148.218 52.9734 147.242 52.3874C146.265 51.8015 145.507 50.9818 144.969 49.9283C144.436 48.8748 144.17 47.6437 144.17 46.2351C144.17 44.8265 144.436 43.5924 144.969 42.533C145.507 41.4736 146.265 40.6509 147.242 40.065C148.218 39.479 149.372 39.1861 150.704 39.1861C152.036 39.1861 153.19 39.479 154.166 40.065C155.143 40.6509 155.897 41.4736 156.43 42.533C156.969 43.5924 157.238 44.8265 157.238 46.2351C157.238 47.6437 156.969 48.8748 156.43 49.9283C155.897 50.9818 155.143 51.8015 154.166 52.3874C153.19 52.9734 152.036 53.2663 150.704 53.2663ZM150.722 50.6918C151.444 50.6918 152.047 50.4935 152.533 50.0969C153.018 49.6945 153.379 49.1559 153.616 48.4812C153.859 47.8065 153.98 47.0548 153.98 46.2262C153.98 45.3917 153.859 44.6371 153.616 43.9624C153.379 43.2817 153.018 42.7402 152.533 42.3377C152.047 41.9353 151.444 41.734 150.722 41.734C149.982 41.734 149.366 41.9353 148.875 42.3377C148.39 42.7402 148.026 43.2817 147.783 43.9624C147.546 44.6371 147.428 45.3917 147.428 46.2262C147.428 47.0548 147.546 47.8065 147.783 48.4812C148.026 49.1559 148.39 49.6945 148.875 50.0969C149.366 50.4935 149.982 50.6918 150.722 50.6918ZM168.157 47.2649V39.3636H171.371V53H168.255V50.5763H168.113C167.805 51.3398 167.299 51.9643 166.595 52.4496C165.896 52.9349 165.035 53.1776 164.011 53.1776C163.117 53.1776 162.327 52.9793 161.641 52.5827C160.96 52.1803 160.427 51.5973 160.043 50.8338C159.658 50.0644 159.466 49.1352 159.466 48.0462V39.3636H162.68V47.549C162.68 48.4131 162.916 49.0997 163.39 49.6087C163.863 50.1177 164.485 50.3722 165.254 50.3722C165.728 50.3722 166.186 50.2567 166.63 50.0259C167.074 49.7951 167.438 49.4518 167.722 48.9961C168.012 48.5344 168.157 47.9574 168.157 47.2649ZM174.176 53V39.3636H177.292V41.6364H177.434C177.682 40.8492 178.109 40.2425 178.712 39.8164C179.322 39.3844 180.017 39.1683 180.799 39.1683C180.976 39.1683 181.174 39.1772 181.393 39.195C181.618 39.2068 181.805 39.2275 181.953 39.2571V42.2134C181.817 42.1661 181.601 42.1246 181.305 42.0891C181.015 42.0477 180.733 42.027 180.461 42.027C179.875 42.027 179.349 42.1542 178.881 42.4087C178.419 42.6573 178.055 43.0036 177.789 43.4474C177.523 43.8913 177.389 44.4033 177.389 44.9833V53H174.176ZM188.974 53.2663C187.613 53.2663 186.444 52.9674 185.468 52.3697C184.497 51.7719 183.748 50.9463 183.222 49.8928C182.701 48.8333 182.44 47.6141 182.44 46.2351C182.44 44.8501 182.707 43.628 183.239 42.5685C183.772 41.5032 184.524 40.6746 185.494 40.0827C186.471 39.485 187.625 39.1861 188.957 39.1861C190.063 39.1861 191.043 39.3903 191.895 39.7987C192.753 40.2011 193.437 40.7723 193.946 41.5121C194.455 42.246 194.745 43.1042 194.816 44.0866H191.744C191.62 43.4297 191.324 42.8822 190.857 42.4442C190.395 42.0004 189.776 41.7784 189.001 41.7784C188.344 41.7784 187.767 41.956 187.27 42.3111C186.773 42.6603 186.385 43.1634 186.107 43.8203C185.835 44.4773 185.699 45.2644 185.699 46.1818C185.699 47.111 185.835 47.91 186.107 48.5788C186.379 49.2417 186.761 49.7537 187.252 50.1147C187.749 50.4698 188.332 50.6474 189.001 50.6474C189.475 50.6474 189.898 50.5586 190.271 50.381C190.649 50.1976 190.966 49.9342 191.221 49.5909C191.475 49.2476 191.65 48.8304 191.744 48.3391H194.816C194.739 49.3039 194.455 50.1591 193.964 50.9048C193.473 51.6446 192.804 52.2247 191.957 52.6449C191.111 53.0592 190.117 53.2663 188.974 53.2663ZM202.992 53.2663C201.625 53.2663 200.444 52.9822 199.45 52.4141C198.461 51.84 197.701 51.0291 197.168 49.9815C196.635 48.928 196.369 47.6881 196.369 46.2617C196.369 44.859 196.635 43.628 197.168 42.5685C197.707 41.5032 198.458 40.6746 199.423 40.0827C200.388 39.485 201.521 39.1861 202.823 39.1861C203.664 39.1861 204.457 39.3222 205.203 39.5945C205.954 39.8608 206.617 40.2751 207.191 40.8374C207.771 41.3996 208.227 42.1158 208.558 42.9858C208.89 43.8499 209.055 44.8797 209.055 46.0753V47.0607H197.878V44.8945H205.975C205.969 44.279 205.836 43.7315 205.575 43.2521C205.315 42.7668 204.951 42.3851 204.483 42.1069C204.022 41.8287 203.483 41.6896 202.868 41.6896C202.211 41.6896 201.634 41.8494 201.136 42.169C200.639 42.4827 200.252 42.897 199.973 43.4119C199.701 43.9209 199.562 44.4802 199.556 45.0898V46.9808C199.556 47.7739 199.701 48.4545 199.991 49.0227C200.281 49.585 200.687 50.017 201.207 50.3189C201.728 50.6148 202.338 50.7628 203.036 50.7628C203.504 50.7628 203.927 50.6977 204.306 50.5675C204.685 50.4313 205.013 50.2331 205.291 49.9727C205.569 49.7122 205.78 49.3897 205.922 49.005L208.922 49.3423C208.733 50.1354 208.372 50.8279 207.839 51.4197C207.312 52.0057 206.638 52.4614 205.815 52.7869C204.992 53.1065 204.051 53.2663 202.992 53.2663Z" fill="#3377FF"/>
<path d="M6.61253 31.7769C4.81506 8.53965 4.79169 9.13673 7.57369 7.32127C9.58808 6.00661 12.0074 6.17828 13.7766 7.76067C15.4047 9.21714 15.8924 10.6366 17.2786 17.9545C17.7576 20.4825 18.2359 22.8593 18.3413 23.2359C18.5096 23.8352 18.9041 23.7594 21.4942 22.6313C24.0303 21.5269 25.0801 21.317 28.8146 21.1708C32.0967 21.0418 33.7638 21.1742 35.5612 21.7065C42.9051 23.8816 48.1626 28.8207 50.8363 36.0569C51.76 38.5575 51.8865 39.626 52.0521 46.3262C52.1698 51.0778 52.0739 54.3598 51.7893 55.328C50.408 60.0242 44.3192 60.9899 41.8718 56.9005C41.1556 55.7045 41.0707 54.7639 41.0695 48.0185C41.0679 40.7422 41.0301 40.3974 40.0062 38.3042C37.9108 34.0215 33.7613 31.6649 29.0012 32.054C25.8813 32.3092 23.6916 33.4152 21.4901 35.848C18.8241 38.7939 18.46 40.6439 18.9974 48.4976C19.3922 54.2675 19.3668 55.1763 18.7753 56.44C16.4429 61.4232 9.23133 59.9853 8.46494 54.3844C8.33331 53.4237 7.49968 43.2502 6.61253 31.7769Z" fill="#3568D4"/>
<path d="M44.3495 16.1652C44.3495 9.92584 44.7112 8.67927 46.9332 7.25685C48.7135 6.11741 51.7427 6.35966 53.2351 7.76078C55.1105 9.52257 55.4248 10.9383 55.4248 17.6277V23.8049L53.7516 26.2076C52.831 27.5293 51.9869 28.6103 51.8758 28.6103C51.7643 28.6103 50.0248 27.0622 48.0113 25.1703L44.3495 21.73V16.1652Z" fill="#3568D4"/>
<path d="M59.3218 14.1934L60.7574 13.9111C61.5472 13.7559 63.5814 13.6753 65.2776 13.7321C70.767 13.9156 75.219 16.8737 77.5146 21.8623C78.4227 23.8352 78.6013 24.8055 78.6013 27.7744C78.6013 30.7435 78.4227 31.7138 77.5146 33.6863C76.9174 34.9842 75.6778 36.8112 74.7601 37.7464C72.1214 40.4342 69.8589 41.3614 63.2924 42.4466C56.6997 43.5357 56.6731 43.5286 56.6616 40.5795C56.6583 39.6936 56.3684 37.8391 56.0172 36.4593C55.666 35.0791 55.4593 33.8676 55.5582 33.7673C55.6566 33.6671 58.089 33.212 60.9641 32.7567C63.8379 32.3008 66.5275 31.7443 66.9394 31.5193C69.2545 30.2575 69.6826 26.7732 67.7621 24.8172C66.4602 23.4908 65.0185 23.3094 61.0531 23.9743L59.0924 24.3028L59.3218 14.1934Z" fill="#3377FF"/>
<path d="M69.4916 46.1602C70.5044 46.1602 75.7164 43.3166 76.7421 42.2047C77.2793 41.6221 77.8374 41.1457 77.9823 41.1457C78.5269 41.1457 85.3071 51.8555 85.5613 53.1163C86.111 55.8459 83.787 59.018 80.955 59.4047C78.0565 59.8009 76.9207 58.8665 72.8452 52.7372C68.9091 46.8176 68.5739 46.1602 69.4916 46.1602Z" fill="#3377FF"/>
</svg>
