<svg width="21" height="17" viewBox="0 0 21 17" fill="none" xmlns="http://www.w3.org/2000/svg">
<path d="M19.9399 15.9999C19.9399 14.2583 18.2703 12.7767 15.9399 12.2275M13.9399 16C13.9399 13.7909 11.2537 12 7.93994 12C4.62623 12 1.93994 13.7909 1.93994 16M13.9399 9C16.1491 9 17.9399 7.20914 17.9399 5C17.9399 2.79086 16.1491 1 13.9399 1M7.93994 9C5.7308 9 3.93994 7.20914 3.93994 5C3.93994 2.79086 5.7308 1 7.93994 1C10.1491 1 11.9399 2.79086 11.9399 5C11.9399 7.20914 10.1491 9 7.93994 9Z" stroke="#7EA6F4" stroke-width="2" stroke-linecap="round" stroke-linejoin="round"/>
</svg>
