<svg width="132" height="39" viewBox="0 0 132 39" fill="none" xmlns="http://www.w3.org/2000/svg">
<path d="M62.1477 18V6.36364H64.2557V11.2898H69.6477V6.36364H71.7614V18H69.6477V13.0568H64.2557V18H62.1477ZM77.5067 18.1705C76.6317 18.1705 75.876 17.9886 75.2397 17.625C74.6071 17.2576 74.1203 16.7386 73.7794 16.0682C73.4385 15.3939 73.2681 14.6004 73.2681 13.6875C73.2681 12.7898 73.4385 12.0019 73.7794 11.3239C74.1241 10.642 74.6052 10.1117 75.2226 9.73295C75.84 9.35038 76.5654 9.15909 77.3988 9.15909C77.9366 9.15909 78.4442 9.24621 78.9215 9.42045C79.4025 9.59091 79.8268 9.85606 80.1942 10.2159C80.5654 10.5758 80.8571 11.0341 81.0692 11.5909C81.2813 12.1439 81.3874 12.803 81.3874 13.5682V14.1989H74.234V12.8125H79.4158C79.412 12.4186 79.3268 12.0682 79.1601 11.7614C78.9934 11.4508 78.7605 11.2064 78.4613 11.0284C78.1658 10.8504 77.8211 10.7614 77.4272 10.7614C77.0067 10.7614 76.6374 10.8636 76.3192 11.0682C76.001 11.2689 75.7529 11.5341 75.5749 11.8636C75.4006 12.1894 75.3116 12.5473 75.3078 12.9375V14.1477C75.3078 14.6553 75.4006 15.0909 75.5863 15.4545C75.7719 15.8144 76.0313 16.0909 76.3647 16.2841C76.698 16.4735 77.0881 16.5682 77.5351 16.5682C77.8344 16.5682 78.1052 16.5265 78.3476 16.4432C78.59 16.3561 78.8003 16.2292 78.9783 16.0625C79.1563 15.8958 79.2908 15.6894 79.3817 15.4432L81.3022 15.6591C81.1809 16.1667 80.9499 16.6098 80.609 16.9886C80.2719 17.3636 79.84 17.6553 79.3135 17.8636C78.787 18.0682 78.1847 18.1705 77.5067 18.1705ZM85.3188 18.1761C84.7658 18.1761 84.2677 18.0777 83.8245 17.8807C83.3851 17.6799 83.0366 17.3845 82.779 16.9943C82.5252 16.6042 82.3984 16.1231 82.3984 15.5511C82.3984 15.0587 82.4893 14.6515 82.6711 14.3295C82.8529 14.0076 83.101 13.75 83.4154 13.5568C83.7298 13.3636 84.084 13.2178 84.4779 13.1193C84.8756 13.017 85.2866 12.9432 85.7109 12.8977C86.2222 12.8447 86.637 12.7973 86.9552 12.7557C87.2734 12.7102 87.5044 12.642 87.6484 12.5511C87.7961 12.4564 87.8699 12.3106 87.8699 12.1136V12.0795C87.8699 11.6515 87.7431 11.3201 87.4893 11.0852C87.2355 10.8504 86.8699 10.733 86.3927 10.733C85.8889 10.733 85.4893 10.8428 85.1938 11.0625C84.9021 11.2822 84.7052 11.5417 84.6029 11.8409L82.6824 11.5682C82.834 11.0379 83.084 10.5947 83.4324 10.2386C83.7809 9.87879 84.2071 9.60985 84.7109 9.43182C85.2146 9.25 85.7715 9.15909 86.3813 9.15909C86.8018 9.15909 87.2203 9.20833 87.637 9.30682C88.0537 9.4053 88.4343 9.56818 88.779 9.79545C89.1237 10.0189 89.4002 10.3239 89.6086 10.7102C89.8207 11.0966 89.9268 11.5795 89.9268 12.1591V18H87.9495V16.8011H87.8813C87.7563 17.0436 87.5802 17.2708 87.3529 17.483C87.1294 17.6913 86.8472 17.8598 86.5063 17.9886C86.1692 18.1136 85.7734 18.1761 85.3188 18.1761ZM85.8529 16.6648C86.2658 16.6648 86.6237 16.5833 86.9268 16.4205C87.2298 16.2538 87.4627 16.0341 87.6256 15.7614C87.7923 15.4886 87.8756 15.1913 87.8756 14.8693V13.8409C87.8112 13.8939 87.7014 13.9432 87.5461 13.9886C87.3946 14.0341 87.2241 14.0739 87.0347 14.108C86.8453 14.142 86.6578 14.1723 86.4722 14.1989C86.2866 14.2254 86.1256 14.2481 85.9893 14.267C85.6824 14.3087 85.4078 14.3769 85.1654 14.4716C84.923 14.5663 84.7317 14.6989 84.5915 14.8693C84.4514 15.036 84.3813 15.2519 84.3813 15.517C84.3813 15.8958 84.5196 16.1818 84.7961 16.375C85.0726 16.5682 85.4249 16.6648 85.8529 16.6648ZM98.5727 11.5795L96.6977 11.7841C96.6446 11.5947 96.5518 11.4167 96.4193 11.25C96.2905 11.0833 96.1162 10.9489 95.8965 10.8466C95.6768 10.7443 95.4079 10.6932 95.0897 10.6932C94.6617 10.6932 94.3018 10.786 94.0102 10.9716C93.7223 11.1572 93.5802 11.3977 93.584 11.6932C93.5802 11.947 93.6731 12.1534 93.8624 12.3125C94.0556 12.4716 94.3738 12.6023 94.817 12.7045L96.3056 13.0227C97.1314 13.2008 97.745 13.483 98.1465 13.8693C98.5518 14.2557 98.7564 14.7614 98.7602 15.3864C98.7564 15.9356 98.5954 16.4205 98.2772 16.8409C97.9628 17.2576 97.5253 17.5833 96.9647 17.8182C96.4041 18.053 95.7602 18.1705 95.0329 18.1705C93.9647 18.1705 93.1049 17.947 92.4534 17.5C91.8018 17.0492 91.4136 16.4223 91.2886 15.6193L93.2943 15.4261C93.3852 15.8201 93.5784 16.1174 93.8738 16.3182C94.1693 16.5189 94.5537 16.6193 95.0272 16.6193C95.5159 16.6193 95.9079 16.5189 96.2034 16.3182C96.5026 16.1174 96.6522 15.8693 96.6522 15.5739C96.6522 15.3239 96.5556 15.1174 96.3624 14.9545C96.1731 14.7917 95.8776 14.6667 95.4761 14.5795L93.9874 14.267C93.1503 14.0928 92.531 13.7992 92.1295 13.3864C91.728 12.9697 91.5291 12.4432 91.5329 11.8068C91.5291 11.2689 91.6749 10.803 91.9704 10.4091C92.2696 10.0114 92.6844 9.70455 93.2147 9.48864C93.7488 9.26894 94.3643 9.15909 95.0613 9.15909C96.084 9.15909 96.889 9.37689 97.4761 9.8125C98.067 10.2481 98.4325 10.8371 98.5727 11.5795ZM101.415 21.2727C101.134 21.2727 100.875 21.25 100.636 21.2045C100.401 21.1629 100.214 21.1136 100.074 21.0568L100.551 19.4545C100.85 19.5417 101.117 19.5833 101.352 19.5795C101.587 19.5758 101.793 19.5019 101.971 19.358C102.153 19.2178 102.307 18.983 102.432 18.6534L102.608 18.1818L99.443 9.27273H101.625L103.636 15.8636H103.727L105.744 9.27273H107.932L104.437 19.0568C104.274 19.5189 104.059 19.9148 103.79 20.2443C103.521 20.5777 103.191 20.8314 102.801 21.0057C102.415 21.1837 101.952 21.2727 101.415 21.2727Z" fill="#3568D4"/>
<path d="M62.1477 33V21.3636H66.5114C67.4053 21.3636 68.1553 21.5189 68.7614 21.8295C69.3712 22.1402 69.8314 22.5758 70.142 23.1364C70.4564 23.6932 70.6136 24.3428 70.6136 25.0852C70.6136 25.8314 70.4545 26.4792 70.1364 27.0284C69.822 27.5739 69.358 27.9962 68.7443 28.2955C68.1307 28.5909 67.3769 28.7386 66.483 28.7386H63.375V26.9886H66.1989C66.7216 26.9886 67.1496 26.9167 67.483 26.7727C67.8163 26.625 68.0625 26.411 68.2216 26.1307C68.3845 25.8466 68.4659 25.4981 68.4659 25.0852C68.4659 24.6723 68.3845 24.3201 68.2216 24.0284C68.0587 23.733 67.8106 23.5095 67.4773 23.358C67.1439 23.2027 66.714 23.125 66.1875 23.125H64.2557V33H62.1477ZM68.1591 27.7273L71.0398 33H68.6875L65.858 27.7273H68.1591ZM75.8817 33.1705C75.0067 33.1705 74.251 32.9886 73.6147 32.625C72.9821 32.2576 72.4953 31.7386 72.1544 31.0682C71.8135 30.3939 71.6431 29.6004 71.6431 28.6875C71.6431 27.7898 71.8135 27.0019 72.1544 26.3239C72.4991 25.642 72.9802 25.1117 73.5976 24.733C74.215 24.3504 74.9404 24.1591 75.7738 24.1591C76.3116 24.1591 76.8192 24.2462 77.2965 24.4205C77.7775 24.5909 78.2018 24.8561 78.5692 25.2159C78.9404 25.5758 79.2321 26.0341 79.4442 26.5909C79.6563 27.1439 79.7624 27.803 79.7624 28.5682V29.1989H72.609V27.8125H77.7908C77.787 27.4186 77.7018 27.0682 77.5351 26.7614C77.3684 26.4508 77.1355 26.2064 76.8363 26.0284C76.5408 25.8504 76.1961 25.7614 75.8022 25.7614C75.3817 25.7614 75.0124 25.8636 74.6942 26.0682C74.376 26.2689 74.1279 26.5341 73.9499 26.8636C73.7756 27.1894 73.6866 27.5473 73.6828 27.9375V29.1477C73.6828 29.6553 73.7756 30.0909 73.9613 30.4545C74.1469 30.8144 74.4063 31.0909 74.7397 31.2841C75.073 31.4735 75.4631 31.5682 75.9101 31.5682C76.2094 31.5682 76.4802 31.5265 76.7226 31.4432C76.965 31.3561 77.1753 31.2292 77.3533 31.0625C77.5313 30.8958 77.6658 30.6894 77.7567 30.4432L79.6772 30.6591C79.5559 31.1667 79.3249 31.6098 78.984 31.9886C78.6469 32.3636 78.215 32.6553 77.6885 32.8636C77.162 33.0682 76.5597 33.1705 75.8817 33.1705ZM88.0802 26.5795L86.2052 26.7841C86.1521 26.5947 86.0593 26.4167 85.9268 26.25C85.798 26.0833 85.6237 25.9489 85.404 25.8466C85.1843 25.7443 84.9154 25.6932 84.5972 25.6932C84.1692 25.6932 83.8093 25.786 83.5177 25.9716C83.2298 26.1572 83.0877 26.3977 83.0915 26.6932C83.0877 26.947 83.1805 27.1534 83.3699 27.3125C83.5631 27.4716 83.8813 27.6023 84.3245 27.7045L85.8131 28.0227C86.6389 28.2008 87.2525 28.483 87.654 28.8693C88.0593 29.2557 88.2639 29.7614 88.2677 30.3864C88.2639 30.9356 88.1029 31.4205 87.7847 31.8409C87.4703 32.2576 87.0328 32.5833 86.4722 32.8182C85.9116 33.053 85.2677 33.1705 84.5404 33.1705C83.4722 33.1705 82.6124 32.947 81.9609 32.5C81.3093 32.0492 80.9211 31.4223 80.7961 30.6193L82.8018 30.4261C82.8927 30.8201 83.0859 31.1174 83.3813 31.3182C83.6768 31.5189 84.0612 31.6193 84.5347 31.6193C85.0234 31.6193 85.4154 31.5189 85.7109 31.3182C86.0101 31.1174 86.1597 30.8693 86.1597 30.5739C86.1597 30.3239 86.0631 30.1174 85.8699 29.9545C85.6806 29.7917 85.3851 29.6667 84.9836 29.5795L83.4949 29.267C82.6578 29.0928 82.0385 28.7992 81.637 28.3864C81.2355 27.9697 81.0366 27.4432 81.0404 26.8068C81.0366 26.2689 81.1824 25.803 81.4779 25.4091C81.7771 25.0114 82.1919 24.7045 82.7222 24.4886C83.2563 24.2689 83.8718 24.1591 84.5688 24.1591C85.5915 24.1591 86.3965 24.3769 86.9836 24.8125C87.5745 25.2481 87.94 25.8371 88.0802 26.5795ZM93.4505 33.1705C92.5982 33.1705 91.8596 32.983 91.2346 32.608C90.6096 32.233 90.1248 31.7083 89.7801 31.0341C89.4391 30.3598 89.2687 29.572 89.2687 28.6705C89.2687 27.7689 89.4391 26.9792 89.7801 26.3011C90.1248 25.6231 90.6096 25.0966 91.2346 24.7216C91.8596 24.3466 92.5982 24.1591 93.4505 24.1591C94.3028 24.1591 95.0414 24.3466 95.6664 24.7216C96.2914 25.0966 96.7744 25.6231 97.1153 26.3011C97.46 26.9792 97.6323 27.7689 97.6323 28.6705C97.6323 29.572 97.46 30.3598 97.1153 31.0341C96.7744 31.7083 96.2914 32.233 95.6664 32.608C95.0414 32.983 94.3028 33.1705 93.4505 33.1705ZM93.4619 31.5227C93.924 31.5227 94.3104 31.3958 94.621 31.142C94.9316 30.8845 95.1626 30.5398 95.3141 30.108C95.4695 29.6761 95.5471 29.1951 95.5471 28.6648C95.5471 28.1307 95.4695 27.6477 95.3141 27.2159C95.1626 26.7803 94.9316 26.4337 94.621 26.1761C94.3104 25.9186 93.924 25.7898 93.4619 25.7898C92.9884 25.7898 92.5945 25.9186 92.2801 26.1761C91.9695 26.4337 91.7365 26.7803 91.5812 27.2159C91.4297 27.6477 91.3539 28.1307 91.3539 28.6648C91.3539 29.1951 91.4297 29.6761 91.5812 30.108C91.7365 30.5398 91.9695 30.8845 92.2801 31.142C92.5945 31.3958 92.9884 31.5227 93.4619 31.5227ZM104.621 29.3295V24.2727H106.677V33H104.683V31.4489H104.592C104.395 31.9375 104.071 32.3371 103.621 32.6477C103.174 32.9583 102.622 33.1136 101.967 33.1136C101.395 33.1136 100.89 32.9867 100.45 32.733C100.015 32.4754 99.6736 32.1023 99.4274 31.6136C99.1812 31.1212 99.0581 30.5265 99.0581 29.8295V24.2727H101.115V29.5114C101.115 30.0644 101.266 30.5038 101.569 30.8295C101.872 31.1553 102.27 31.3182 102.763 31.3182C103.066 31.3182 103.359 31.2443 103.643 31.0966C103.927 30.9489 104.16 30.7292 104.342 30.4375C104.528 30.142 104.621 29.7727 104.621 29.3295ZM108.472 33V24.2727H110.467V25.7273H110.558C110.717 25.2235 110.989 24.8352 111.376 24.5625C111.766 24.286 112.211 24.1477 112.711 24.1477C112.825 24.1477 112.952 24.1534 113.092 24.1648C113.236 24.1723 113.355 24.1856 113.45 24.2045V26.0966C113.363 26.0663 113.224 26.0398 113.035 26.017C112.849 25.9905 112.669 25.9773 112.495 25.9773C112.12 25.9773 111.783 26.0587 111.484 26.2216C111.188 26.3807 110.955 26.6023 110.785 26.8864C110.614 27.1705 110.529 27.4981 110.529 27.8693V33H108.472ZM117.944 33.1705C117.072 33.1705 116.324 32.9792 115.699 32.5966C115.078 32.214 114.599 31.6856 114.262 31.0114C113.928 30.3333 113.762 29.553 113.762 28.6705C113.762 27.7841 113.932 27.0019 114.273 26.3239C114.614 25.642 115.095 25.1117 115.716 24.733C116.341 24.3504 117.08 24.1591 117.932 24.1591C118.641 24.1591 119.268 24.2898 119.813 24.5511C120.362 24.8087 120.8 25.1742 121.125 25.6477C121.451 26.1174 121.637 26.6667 121.682 27.2955H119.716C119.637 26.875 119.447 26.5246 119.148 26.2443C118.853 25.9602 118.457 25.8182 117.961 25.8182C117.54 25.8182 117.171 25.9318 116.853 26.1591C116.535 26.3826 116.286 26.7045 116.108 27.125C115.934 27.5455 115.847 28.0492 115.847 28.6364C115.847 29.2311 115.934 29.7424 116.108 30.1705C116.283 30.5947 116.527 30.9223 116.841 31.1534C117.16 31.3807 117.533 31.4943 117.961 31.4943C118.264 31.4943 118.535 31.4375 118.773 31.3239C119.016 31.2064 119.218 31.0379 119.381 30.8182C119.544 30.5985 119.656 30.3314 119.716 30.017H121.682C121.633 30.6345 121.451 31.1818 121.137 31.6591C120.822 32.1326 120.394 32.5038 119.853 32.7727C119.311 33.0379 118.675 33.1705 117.944 33.1705ZM126.915 33.1705C126.04 33.1705 125.284 32.9886 124.648 32.625C124.015 32.2576 123.528 31.7386 123.188 31.0682C122.847 30.3939 122.676 29.6004 122.676 28.6875C122.676 27.7898 122.847 27.0019 123.188 26.3239C123.532 25.642 124.013 25.1117 124.631 24.733C125.248 24.3504 125.974 24.1591 126.807 24.1591C127.345 24.1591 127.852 24.2462 128.33 24.4205C128.811 24.5909 129.235 24.8561 129.602 25.2159C129.974 25.5758 130.265 26.0341 130.477 26.5909C130.689 27.1439 130.796 27.803 130.796 28.5682V29.1989H123.642V27.8125H128.824C128.82 27.4186 128.735 27.0682 128.568 26.7614C128.402 26.4508 128.169 26.2064 127.869 26.0284C127.574 25.8504 127.229 25.7614 126.835 25.7614C126.415 25.7614 126.046 25.8636 125.727 26.0682C125.409 26.2689 125.161 26.5341 124.983 26.8636C124.809 27.1894 124.72 27.5473 124.716 27.9375V29.1477C124.716 29.6553 124.809 30.0909 124.994 30.4545C125.18 30.8144 125.439 31.0909 125.773 31.2841C126.106 31.4735 126.496 31.5682 126.943 31.5682C127.242 31.5682 127.513 31.5265 127.756 31.4432C127.998 31.3561 128.208 31.2292 128.386 31.0625C128.564 30.8958 128.699 30.6894 128.79 30.4432L130.71 30.6591C130.589 31.1667 130.358 31.6098 130.017 31.9886C129.68 32.3636 129.248 32.6553 128.722 32.8636C128.195 33.0682 127.593 33.1705 126.915 33.1705Z" fill="#3377FF"/>
<path d="M12.2785 18.084C11.3438 6.00061 11.3317 6.31109 12.7783 5.36705C13.8258 4.68343 15.0838 4.7727 16.0038 5.59554C16.8504 6.3529 17.1041 7.09105 17.8249 10.8963C18.0739 12.2109 18.3226 13.4468 18.3774 13.6426C18.465 13.9543 18.6701 13.9149 20.017 13.3282C21.3358 12.754 21.8816 12.6448 23.8236 12.5688C25.5303 12.5017 26.3972 12.5706 27.3318 12.8474C31.1506 13.9784 33.8845 16.5468 35.2749 20.3096C35.7552 21.6099 35.821 22.1655 35.9071 25.6496C35.9683 28.1205 35.9184 29.8271 35.7704 30.3305C35.0522 32.7726 31.886 33.2747 30.6133 31.1483C30.2409 30.5263 30.1968 30.0372 30.1961 26.5296C30.1953 22.746 30.1757 22.5667 29.6432 21.4782C28.5536 19.2512 26.3959 18.0258 23.9206 18.2281C22.2983 18.3608 21.1596 18.9359 20.0148 20.201C18.6285 21.7328 18.4392 22.6948 18.7186 26.7787C18.924 29.7791 18.9107 30.2517 18.6031 30.9088C17.3903 33.5001 13.6403 32.7524 13.2418 29.8399C13.1733 29.3403 12.7398 24.0501 12.2785 18.084Z" fill="#3568D4"/>
<path d="M31.9019 9.96586C31.9019 6.7214 32.0899 6.07318 33.2454 5.33352C34.1711 4.74101 35.7463 4.86698 36.5224 5.59557C37.4976 6.5117 37.661 7.24788 37.661 10.7264V13.9385L36.7909 15.1879C36.3123 15.8752 35.8733 16.4373 35.8155 16.4373C35.7575 16.4373 34.853 15.6323 33.806 14.6485L31.9019 12.8596V9.96586Z" fill="#3568D4"/>
<path d="M39.6872 8.94058L40.4337 8.79376C40.8444 8.71308 41.9022 8.67115 42.7843 8.70069C45.6387 8.79615 47.9538 10.3343 49.1475 12.9284C49.6197 13.9543 49.7126 14.4589 49.7126 16.0027C49.7126 17.5466 49.6197 18.0512 49.1475 19.0769C48.8369 19.7518 48.1923 20.7018 47.7151 21.1881C46.343 22.5858 45.1665 23.068 41.7519 23.6322C38.3238 24.1986 38.3099 24.1949 38.3039 22.6614C38.3022 22.2007 38.1515 21.2363 37.9688 20.5188C37.7862 19.8011 37.6787 19.1712 37.7301 19.119C37.7813 19.0669 39.0462 18.8303 40.5412 18.5935C42.0356 18.3564 43.4342 18.067 43.6484 17.9501C44.8522 17.2939 45.0749 15.4821 44.0762 14.465C43.3992 13.7752 42.6495 13.6809 40.5875 14.0267L39.5679 14.1975L39.6872 8.94058Z" fill="#3377FF"/>
<path d="M44.9754 25.5633C45.5021 25.5633 48.2123 24.0846 48.7457 23.5064C49.025 23.2035 49.3152 22.9557 49.3906 22.9557C49.6738 22.9557 53.1995 28.5249 53.3317 29.1805C53.6175 30.5998 52.4091 32.2493 50.9364 32.4504C49.4292 32.6565 48.8386 32.1706 46.7193 28.9834C44.6725 25.9052 44.4982 25.5633 44.9754 25.5633Z" fill="#3377FF"/>
</svg>
