<svg width="81" height="80" viewBox="0 0 81 80" fill="none" xmlns="http://www.w3.org/2000/svg">
<mask id="path-1-outside-1_96_468" maskUnits="userSpaceOnUse" x="-0.5" y="-1" width="82" height="82" fill="black">
<rect fill="white" x="-0.5" y="-1" width="82" height="82"/>
<path d="M71.0813 32.1313C69.9031 30.9 68.6844 29.6313 68.225 28.5156C67.8 27.4937 67.775 25.8 67.75 24.1594C67.7031 21.1094 67.6531 17.6531 65.25 15.25C62.8469 12.8469 59.3906 12.7969 56.3406 12.75C54.7 12.725 53.0062 12.7 51.9844 12.275C50.8719 11.8156 49.6 10.5969 48.3687 9.41875C46.2125 7.34687 43.7625 5 40.5 5C37.2375 5 34.7906 7.34687 32.6313 9.41875C31.4 10.5969 30.1313 11.8156 29.0156 12.275C28 12.7 26.3 12.725 24.6594 12.75C21.6094 12.7969 18.1531 12.8469 15.75 15.25C13.3469 17.6531 13.3125 21.1094 13.25 24.1594C13.225 25.8 13.2 27.4937 12.775 28.5156C12.3156 29.6281 11.0969 30.9 9.91875 32.1313C7.84687 34.2875 5.5 36.7375 5.5 40C5.5 43.2625 7.84687 45.7094 9.91875 47.8687C11.0969 49.1 12.3156 50.3688 12.775 51.4844C13.2 52.5062 13.225 54.2 13.25 55.8406C13.2969 58.8906 13.3469 62.3469 15.75 64.75C18.1531 67.1531 21.6094 67.2031 24.6594 67.25C26.3 67.275 27.9937 67.3 29.0156 67.725C30.1281 68.1844 31.4 69.4031 32.6313 70.5813C34.7875 72.6531 37.2375 75 40.5 75C43.7625 75 46.2094 72.6531 48.3687 70.5813C49.6 69.4031 50.8688 68.1844 51.9844 67.725C53.0062 67.3 54.7 67.275 56.3406 67.25C59.3906 67.2031 62.8469 67.1531 65.25 64.75C67.6531 62.3469 67.7031 58.8906 67.75 55.8406C67.775 54.2 67.8 52.5062 68.225 51.4844C68.6844 50.3719 69.9031 49.1 71.0813 47.8687C73.1531 45.7125 75.5 43.2625 75.5 40C75.5 36.7375 73.1531 34.2906 71.0813 32.1313ZM54.7688 34.2688L37.2688 51.7688C37.0366 52.0012 36.7608 52.1856 36.4574 52.3114C36.1539 52.4372 35.8285 52.502 35.5 52.502C35.1715 52.502 34.8461 52.4372 34.5426 52.3114C34.2392 52.1856 33.9634 52.0012 33.7312 51.7688L26.2312 44.2688C25.7621 43.7996 25.4986 43.1634 25.4986 42.5C25.4986 41.8366 25.7621 41.2004 26.2312 40.7312C26.7003 40.2621 27.3366 39.9986 28 39.9986C28.6634 39.9986 29.2997 40.2621 29.7688 40.7312L35.5 46.4656L51.2312 30.7312C51.4635 30.499 51.7393 30.3147 52.0428 30.189C52.3462 30.0633 52.6715 29.9986 53 29.9986C53.3285 29.9986 53.6538 30.0633 53.9572 30.189C54.2607 30.3147 54.5365 30.499 54.7688 30.7312C55.001 30.9635 55.1853 31.2393 55.311 31.5428C55.4367 31.8462 55.5014 32.1715 55.5014 32.5C55.5014 32.8285 55.4367 33.1538 55.311 33.4572C55.1853 33.7607 55.001 34.0365 54.7688 34.2688Z"/>
</mask>
<path d="M71.0813 32.1313C69.9031 30.9 68.6844 29.6313 68.225 28.5156C67.8 27.4937 67.775 25.8 67.75 24.1594C67.7031 21.1094 67.6531 17.6531 65.25 15.25C62.8469 12.8469 59.3906 12.7969 56.3406 12.75C54.7 12.725 53.0062 12.7 51.9844 12.275C50.8719 11.8156 49.6 10.5969 48.3687 9.41875C46.2125 7.34687 43.7625 5 40.5 5C37.2375 5 34.7906 7.34687 32.6313 9.41875C31.4 10.5969 30.1313 11.8156 29.0156 12.275C28 12.7 26.3 12.725 24.6594 12.75C21.6094 12.7969 18.1531 12.8469 15.75 15.25C13.3469 17.6531 13.3125 21.1094 13.25 24.1594C13.225 25.8 13.2 27.4937 12.775 28.5156C12.3156 29.6281 11.0969 30.9 9.91875 32.1313C7.84687 34.2875 5.5 36.7375 5.5 40C5.5 43.2625 7.84687 45.7094 9.91875 47.8687C11.0969 49.1 12.3156 50.3688 12.775 51.4844C13.2 52.5062 13.225 54.2 13.25 55.8406C13.2969 58.8906 13.3469 62.3469 15.75 64.75C18.1531 67.1531 21.6094 67.2031 24.6594 67.25C26.3 67.275 27.9937 67.3 29.0156 67.725C30.1281 68.1844 31.4 69.4031 32.6313 70.5813C34.7875 72.6531 37.2375 75 40.5 75C43.7625 75 46.2094 72.6531 48.3687 70.5813C49.6 69.4031 50.8688 68.1844 51.9844 67.725C53.0062 67.3 54.7 67.275 56.3406 67.25C59.3906 67.2031 62.8469 67.1531 65.25 64.75C67.6531 62.3469 67.7031 58.8906 67.75 55.8406C67.775 54.2 67.8 52.5062 68.225 51.4844C68.6844 50.3719 69.9031 49.1 71.0813 47.8687C73.1531 45.7125 75.5 43.2625 75.5 40C75.5 36.7375 73.1531 34.2906 71.0813 32.1313ZM54.7688 34.2688L37.2688 51.7688C37.0366 52.0012 36.7608 52.1856 36.4574 52.3114C36.1539 52.4372 35.8285 52.502 35.5 52.502C35.1715 52.502 34.8461 52.4372 34.5426 52.3114C34.2392 52.1856 33.9634 52.0012 33.7312 51.7688L26.2312 44.2688C25.7621 43.7996 25.4986 43.1634 25.4986 42.5C25.4986 41.8366 25.7621 41.2004 26.2312 40.7312C26.7003 40.2621 27.3366 39.9986 28 39.9986C28.6634 39.9986 29.2997 40.2621 29.7688 40.7312L35.5 46.4656L51.2312 30.7312C51.4635 30.499 51.7393 30.3147 52.0428 30.189C52.3462 30.0633 52.6715 29.9986 53 29.9986C53.3285 29.9986 53.6538 30.0633 53.9572 30.189C54.2607 30.3147 54.5365 30.499 54.7688 30.7312C55.001 30.9635 55.1853 31.2393 55.311 31.5428C55.4367 31.8462 55.5014 32.1715 55.5014 32.5C55.5014 32.8285 55.4367 33.1538 55.311 33.4572C55.1853 33.7607 55.001 34.0365 54.7688 34.2688Z" fill="white"/>
<path d="M71.0813 32.1313L66.7461 36.2793L66.7518 36.2853L71.0813 32.1313ZM68.225 28.5156L73.7731 26.2311L73.769 26.2213L73.765 26.2115L68.225 28.5156ZM67.75 24.1594L73.7493 24.068L73.7493 24.0672L67.75 24.1594ZM56.3406 12.75L56.4328 6.75071L56.432 6.7507L56.3406 12.75ZM51.9844 12.275L54.2885 6.73504L54.2814 6.7321L54.2744 6.72919L51.9844 12.275ZM48.3687 9.41875L44.2116 13.7452L44.2207 13.7539L48.3687 9.41875ZM32.6313 9.41875L36.7793 13.7539L36.7853 13.7482L32.6313 9.41875ZM29.0156 12.275L26.7311 6.72693L26.7153 6.73346L26.6995 6.74007L29.0156 12.275ZM24.6594 12.75L24.568 6.7507L24.5672 6.75071L24.6594 12.75ZM13.25 24.1594L7.25126 24.0364L7.25094 24.0522L7.2507 24.068L13.25 24.1594ZM12.775 28.5156L7.23504 26.2115L7.2321 26.2186L7.22919 26.2256L12.775 28.5156ZM9.91875 32.1313L14.2452 36.2884L14.2539 36.2793L9.91875 32.1313ZM9.91875 47.8687L14.2539 43.7207L14.2482 43.7147L9.91875 47.8687ZM12.775 51.4844L7.22693 53.7689L7.23097 53.7787L7.23504 53.7885L12.775 51.4844ZM13.25 55.8406L7.2507 55.932L7.25071 55.9328L13.25 55.8406ZM24.6594 67.25L24.5672 73.2493L24.568 73.2493L24.6594 67.25ZM29.0156 67.725L26.7115 73.265L26.7186 73.2679L26.7256 73.2708L29.0156 67.725ZM32.6313 70.5813L36.7884 66.2548L36.7793 66.2461L32.6313 70.5813ZM48.3687 70.5813L44.2207 66.2461L44.2147 66.2518L48.3687 70.5813ZM51.9844 67.725L54.2689 73.2731L54.2787 73.269L54.2885 73.265L51.9844 67.725ZM56.3406 67.25L56.432 73.2493L56.4328 73.2493L56.3406 67.25ZM67.75 55.8406L73.7493 55.9328L73.7493 55.932L67.75 55.8406ZM68.225 51.4844L73.765 53.7885L73.7679 53.7814L73.7708 53.7744L68.225 51.4844ZM71.0813 47.8687L66.7548 43.7116L66.7461 43.7207L71.0813 47.8687ZM37.2688 51.7688L33.0261 47.5261L33.0238 47.5285L37.2688 51.7688ZM33.7312 51.7688L37.9762 47.5285L37.9739 47.5261L33.7312 51.7688ZM25.4986 42.5H19.4986H25.4986ZM29.7688 40.7312L34.0125 36.4898L34.0114 36.4886L29.7688 40.7312ZM35.5 46.4656L31.2562 50.7071L35.4993 54.9525L39.7431 50.7078L35.5 46.4656ZM51.2312 30.7312L46.9886 26.4886L46.9882 26.489L51.2312 30.7312ZM55.5014 32.5H61.5014H55.5014ZM75.4164 27.9832C74.791 27.3296 74.3438 26.8595 73.9907 26.4364C73.8252 26.238 73.7323 26.1105 73.6874 26.0434C73.6373 25.9684 73.6931 26.0369 73.7731 26.2311L62.6769 30.8001C63.2603 32.2169 64.1524 33.3758 64.7764 34.1238C65.4421 34.9217 66.1933 35.7016 66.7461 36.2793L75.4164 27.9832ZM73.765 26.2115C73.8656 26.4536 73.8824 26.5821 73.869 26.5119C73.8581 26.4546 73.8372 26.318 73.8171 26.0753C73.7744 25.5583 73.7625 24.9368 73.7493 24.068L61.7507 24.2508C61.7625 25.0226 61.7756 26.0682 61.8579 27.0637C61.9331 27.9741 62.1018 29.4174 62.685 30.8197L73.765 26.2115ZM73.7493 24.0672C73.7107 21.5595 73.9018 15.4165 69.4926 11.0074L61.0074 19.4926C61.1407 19.6259 61.3462 19.8928 61.5072 20.6739C61.6922 21.5709 61.7257 22.6231 61.7507 24.2516L73.7493 24.0672ZM69.4926 11.0074C65.0835 6.5982 58.9405 6.78925 56.4328 6.75071L56.2484 18.7493C57.8769 18.7743 58.9291 18.8078 59.8261 18.9928C60.6072 19.1538 60.8741 19.3593 61.0074 19.4926L69.4926 11.0074ZM56.432 6.7507C55.5632 6.73746 54.9417 6.72561 54.4247 6.68289C54.182 6.66283 54.0454 6.64188 53.9881 6.63097C53.9179 6.6176 54.0464 6.63436 54.2885 6.73504L49.6803 17.815C51.0826 18.3982 52.5259 18.5669 53.4363 18.6421C54.4318 18.7244 55.4774 18.7375 56.2492 18.7493L56.432 6.7507ZM54.2744 6.72919C54.4679 6.8091 54.5354 6.86443 54.4591 6.81337C54.3908 6.76771 54.2624 6.67396 54.0634 6.50804C53.6398 6.1549 53.1677 5.7064 52.5168 5.08362L44.2207 13.7539C44.801 14.3092 45.5805 15.0592 46.3788 15.7248C47.126 16.3477 48.2828 17.2379 49.6944 17.8208L54.2744 6.72919ZM52.5259 5.09231C50.7737 3.40866 46.5886 -1 40.5 -1V11C40.6076 11 40.9008 11.0183 41.5593 11.4501C42.3057 11.9394 43.0647 12.6432 44.2116 13.7452L52.5259 5.09231ZM40.5 -1C34.4114 -1 30.2265 3.41088 28.4772 5.0893L36.7853 13.7482C37.9367 12.6434 38.6953 11.9397 39.4425 11.4496C40.1008 11.0179 40.3929 11 40.5 11V-1ZM28.4832 5.08362C27.8296 5.70897 27.3595 6.15621 26.9364 6.50925C26.738 6.67475 26.6105 6.76772 26.5434 6.81261C26.4684 6.86275 26.5369 6.80691 26.7311 6.72693L31.3001 17.8231C32.7169 17.2397 33.8758 16.3476 34.6238 15.7236C35.4217 15.0579 36.2016 14.3067 36.7793 13.7539L28.4832 5.08362ZM26.6995 6.74007C26.9491 6.63563 27.0832 6.61787 27.0136 6.63115C26.9576 6.64182 26.8215 6.66276 26.5782 6.68284C26.0602 6.72561 25.437 6.73745 24.568 6.7507L24.7508 18.7493C25.5224 18.7375 26.5695 18.7244 27.5656 18.6422C28.4722 18.5673 29.9242 18.3989 31.3318 17.8099L26.6995 6.74007ZM24.5672 6.75071C22.0595 6.78925 15.9165 6.5982 11.5074 11.0074L19.9926 19.4926C20.1259 19.3593 20.3928 19.1538 21.1739 18.9928C22.0709 18.8078 23.1231 18.7743 24.7516 18.7493L24.5672 6.75071ZM11.5074 11.0074C7.09755 15.4172 7.30143 21.588 7.25126 24.0364L19.2487 24.2823C19.2827 22.6252 19.3138 21.5756 19.5001 20.6668C19.6612 19.8809 19.8651 19.6201 19.9926 19.4926L11.5074 11.0074ZM7.2507 24.068C7.23746 24.9368 7.22561 25.5583 7.18289 26.0753C7.16283 26.318 7.14188 26.4546 7.13097 26.5119C7.1176 26.5821 7.13436 26.4536 7.23504 26.2115L18.315 30.8197C18.8982 29.4174 19.0669 27.9741 19.1421 27.0637C19.2244 26.0682 19.2375 25.0226 19.2493 24.2508L7.2507 24.068ZM7.22919 26.2256C7.3091 26.0321 7.36444 25.9646 7.31337 26.0409C7.26771 26.1092 7.17396 26.2376 7.00804 26.4366C6.6549 26.8602 6.2064 27.3323 5.58362 27.9832L14.2539 36.2793C14.8092 35.699 15.5592 34.9195 16.2248 34.1212C16.8477 33.374 17.7379 32.2172 18.3208 30.8056L7.22919 26.2256ZM5.59231 27.9741C3.90866 29.7263 -0.5 33.9114 -0.5 40H11.5C11.5 39.8923 11.5183 39.5992 11.9501 38.9407C12.4394 38.1943 13.1432 37.4353 14.2452 36.2884L5.59231 27.9741ZM-0.5 40C-0.5 46.0886 3.91088 50.2735 5.5893 52.0228L14.2482 43.7147C13.1434 42.5633 12.4397 41.8047 11.9496 41.0575C11.5179 40.3992 11.5 40.1071 11.5 40H-0.5ZM5.58362 52.0168C6.20897 52.6704 6.65621 53.1405 7.00925 53.5636C7.17475 53.762 7.26772 53.8895 7.3126 53.9566C7.36275 54.0316 7.30691 53.9631 7.22693 53.7689L18.3231 49.1999C17.7397 47.7831 16.8476 46.6242 16.2236 45.8762C15.5579 45.0783 14.8067 44.2984 14.2539 43.7207L5.58362 52.0168ZM7.23504 53.7885C7.13436 53.5464 7.1176 53.4179 7.13097 53.4881C7.14188 53.5454 7.16283 53.682 7.18289 53.9247C7.22561 54.4417 7.23746 55.0632 7.2507 55.932L19.2493 55.7492C19.2375 54.9774 19.2244 53.9318 19.1421 52.9363C19.0669 52.0259 18.8982 50.5826 18.315 49.1803L7.23504 53.7885ZM7.25071 55.9328C7.28925 58.4405 7.0982 64.5835 11.5074 68.9926L19.9926 60.5074C19.8593 60.3741 19.6538 60.1072 19.4928 59.3261C19.3078 58.4291 19.2743 57.3769 19.2493 55.7484L7.25071 55.9328ZM11.5074 68.9926C15.9165 73.4018 22.0595 73.2107 24.5672 73.2493L24.7516 61.2507C23.1231 61.2257 22.0709 61.1922 21.1739 61.0072C20.3928 60.8462 20.1259 60.6407 19.9926 60.5074L11.5074 68.9926ZM24.568 73.2493C25.4368 73.2625 26.0583 73.2744 26.5753 73.3171C26.818 73.3372 26.9546 73.3581 27.0119 73.369C27.0821 73.3824 26.9536 73.3656 26.7115 73.265L31.3197 62.185C29.9174 61.6018 28.4741 61.4331 27.5637 61.3579C26.5682 61.2756 25.5226 61.2625 24.7508 61.2507L24.568 73.2493ZM26.7256 73.2708C26.5321 73.1909 26.4646 73.1356 26.5409 73.1866C26.6092 73.2323 26.7376 73.326 26.9366 73.492C27.3602 73.8451 27.8323 74.2936 28.4832 74.9164L36.7793 66.2461C36.199 65.6908 35.4195 64.9408 34.6212 64.2752C33.874 63.6523 32.7172 62.7621 31.3056 62.1792L26.7256 73.2708ZM28.4741 74.9077C30.2263 76.5913 34.4114 81 40.5 81V69C40.3923 69 40.0992 68.9817 39.4407 68.5499C38.6943 68.0606 37.9353 67.3568 36.7884 66.2548L28.4741 74.9077ZM40.5 81C46.5886 81 50.7735 76.5891 52.5228 74.9107L44.2147 66.2518C43.0633 67.3566 42.3047 68.0603 41.5575 68.5504C40.8992 68.9821 40.6071 69 40.5 69V81ZM52.5168 74.9164C53.1704 74.291 53.6405 73.8438 54.0636 73.4907C54.262 73.3253 54.3895 73.2323 54.4566 73.1874C54.5316 73.1373 54.4631 73.1931 54.2689 73.2731L49.6999 62.1769C48.2831 62.7603 47.1242 63.6524 46.3762 64.2764C45.5783 64.9421 44.7984 65.6933 44.2207 66.2461L52.5168 74.9164ZM54.2885 73.265C54.0464 73.3656 53.9179 73.3824 53.9881 73.369C54.0454 73.3581 54.182 73.3372 54.4247 73.3171C54.9417 73.2744 55.5632 73.2625 56.432 73.2493L56.2492 61.2507C55.4774 61.2625 54.4318 61.2756 53.4363 61.3579C52.5259 61.4331 51.0826 61.6018 49.6803 62.185L54.2885 73.265ZM56.4328 73.2493C58.9405 73.2107 65.0835 73.4018 69.4926 68.9926L61.0074 60.5074C60.8741 60.6407 60.6072 60.8462 59.8261 61.0072C58.9291 61.1922 57.8769 61.2257 56.2484 61.2507L56.4328 73.2493ZM69.4926 68.9926C73.9018 64.5835 73.7107 58.4405 73.7493 55.9328L61.7507 55.7484C61.7257 57.3769 61.6922 58.4291 61.5072 59.3261C61.3462 60.1072 61.1407 60.3741 61.0074 60.5074L69.4926 68.9926ZM73.7493 55.932C73.7625 55.0632 73.7744 54.4417 73.8171 53.9247C73.8372 53.682 73.8581 53.5454 73.869 53.4881C73.8824 53.4179 73.8656 53.5464 73.765 53.7885L62.685 49.1803C62.1018 50.5826 61.9331 52.0259 61.8579 52.9363C61.7756 53.9318 61.7625 54.9774 61.7507 55.7492L73.7493 55.932ZM73.7708 53.7744C73.6909 53.9679 73.6356 54.0354 73.6866 53.9591C73.7323 53.8908 73.826 53.7624 73.992 53.5634C74.3451 53.1398 74.7936 52.6677 75.4164 52.0168L66.7461 43.7207C66.1908 44.301 65.4408 45.0805 64.7752 45.8788C64.1523 46.626 63.2621 47.7828 62.6792 49.1944L73.7708 53.7744ZM75.4077 52.0259C77.0913 50.2737 81.5 46.0886 81.5 40H69.5C69.5 40.1076 69.4817 40.4008 69.0499 41.0593C68.5606 41.8057 67.8568 42.5647 66.7548 43.7116L75.4077 52.0259ZM81.5 40C81.5 33.9114 77.0891 29.7265 75.4107 27.9772L66.7518 36.2853C67.8566 37.4367 68.5603 38.1953 69.0504 38.9425C69.4821 39.6008 69.5 39.8929 69.5 40H81.5ZM50.5261 30.0261L33.0261 47.5261L41.5114 56.0114L59.0114 38.5114L50.5261 30.0261ZM33.0238 47.5285C33.3488 47.2031 33.7348 46.9449 34.1597 46.7688L38.755 57.854C39.7869 57.4263 40.7243 56.7993 41.5138 56.009L33.0238 47.5285ZM34.1597 46.7688C34.5846 46.5926 35.0401 46.502 35.5 46.502V58.502C36.617 58.502 37.7231 58.2818 38.755 57.854L34.1597 46.7688ZM35.5 46.502C35.9599 46.502 36.4154 46.5926 36.8403 46.7688L32.245 57.854C33.2769 58.2818 34.383 58.502 35.5 58.502V46.502ZM36.8403 46.7688C37.2652 46.9449 37.6512 47.2031 37.9762 47.5285L29.4862 56.009C30.2757 56.7993 31.2131 57.4263 32.245 57.854L36.8403 46.7688ZM37.9739 47.5261L30.4739 40.0261L21.9886 48.5114L29.4886 56.0114L37.9739 47.5261ZM30.4739 40.0261C31.13 40.6822 31.4986 41.5721 31.4986 42.5H19.4986C19.4986 44.7547 20.3943 46.9171 21.9886 48.5114L30.4739 40.0261ZM31.4986 42.5C31.4986 43.4279 31.13 44.3178 30.4739 44.9739L21.9886 36.4886C20.3943 38.0829 19.4986 40.2453 19.4986 42.5H31.4986ZM30.4739 44.9739C29.8178 45.63 28.9279 45.9986 28 45.9986V33.9986C25.7453 33.9986 23.5829 34.8943 21.9886 36.4886L30.4739 44.9739ZM28 45.9986C27.0721 45.9986 26.1822 45.63 25.5261 44.9739L34.0114 36.4886C32.4171 34.8943 30.2547 33.9986 28 33.9986V45.9986ZM25.525 44.9727L31.2562 50.7071L39.7438 42.2241L34.0125 36.4898L25.525 44.9727ZM39.7431 50.7078L55.4743 34.9735L46.9882 26.489L31.2569 42.2234L39.7431 50.7078ZM55.4739 34.9739C55.149 35.2988 54.7633 35.5565 54.3389 35.7323L49.7467 24.6457C48.7152 25.073 47.778 25.6992 46.9886 26.4886L55.4739 34.9739ZM54.3389 35.7323C53.9144 35.9081 53.4594 35.9986 53 35.9986V23.9986C51.8836 23.9986 50.7781 24.2185 49.7467 24.6457L54.3389 35.7323ZM53 35.9986C52.5406 35.9986 52.0856 35.9081 51.6611 35.7323L56.2533 24.6457C55.2219 24.2185 54.1164 23.9986 53 23.9986V35.9986ZM51.6611 35.7323C51.2367 35.5565 50.851 35.2988 50.5261 34.9739L59.0114 26.4886C58.222 25.6992 57.2848 25.073 56.2533 24.6457L51.6611 35.7323ZM50.5261 34.9739C50.2012 34.649 49.9435 34.2633 49.7677 33.8389L60.8543 29.2467C60.427 28.2153 59.8008 27.2781 59.0114 26.4886L50.5261 34.9739ZM49.7677 33.8389C49.5919 33.4144 49.5014 32.9595 49.5014 32.5H61.5014C61.5014 31.3835 61.2815 30.2781 60.8543 29.2467L49.7677 33.8389ZM49.5014 32.5C49.5014 32.0405 49.5919 31.5856 49.7677 31.1611L60.8543 35.7533C61.2815 34.7219 61.5014 33.6165 61.5014 32.5H49.5014ZM49.7677 31.1611C49.9435 30.7367 50.2012 30.351 50.5261 30.0261L59.0114 38.5114C59.8008 37.7219 60.427 36.7847 60.8543 35.7533L49.7677 31.1611Z" fill="#007FFF" mask="url(#path-1-outside-1_96_468)"/>
</svg>
